<svg id="visual" viewBox="0 0 900 600" width="900" height="600" xmlns="http://www.w3.org/2000/svg" xmlns:xlink="http://www.w3.org/1999/xlink" version="1.1"><rect x="0" y="0" width="900" height="600" fill="#001220"></rect><defs><linearGradient id="grad1_0" x1="33.3%" y1="100%" x2="100%" y2="0%"><stop offset="20%" stop-color="#a86fff" stop-opacity="1"></stop><stop offset="80%" stop-color="#a86fff" stop-opacity="1"></stop></linearGradient></defs><defs><linearGradient id="grad1_1" x1="33.3%" y1="100%" x2="100%" y2="0%"><stop offset="20%" stop-color="#a86fff" stop-opacity="1"></stop><stop offset="80%" stop-color="#7465de" stop-opacity="1"></stop></linearGradient></defs><defs><linearGradient id="grad1_2" x1="33.3%" y1="100%" x2="100%" y2="0%"><stop offset="20%" stop-color="#4558b9" stop-opacity="1"></stop><stop offset="80%" stop-color="#7465de" stop-opacity="1"></stop></linearGradient></defs><defs><linearGradient id="grad1_3" x1="33.3%" y1="100%" x2="100%" y2="0%"><stop offset="20%" stop-color="#4558b9" stop-opacity="1"></stop><stop offset="80%" stop-color="#1b4992" stop-opacity="1"></stop></linearGradient></defs><defs><linearGradient id="grad1_4" x1="33.3%" y1="100%" x2="100%" y2="0%"><stop offset="20%" stop-color="#00376a" stop-opacity="1"></stop><stop offset="80%" stop-color="#1b4992" stop-opacity="1"></stop></linearGradient></defs><defs><linearGradient id="grad1_5" x1="33.3%" y1="100%" x2="100%" y2="0%"><stop offset="20%" stop-color="#00376a" stop-opacity="1"></stop><stop offset="80%" stop-color="#002544" stop-opacity="1"></stop></linearGradient></defs><defs><linearGradient id="grad1_6" x1="33.3%" y1="100%" x2="100%" y2="0%"><stop offset="20%" stop-color="#001220" stop-opacity="1"></stop><stop offset="80%" stop-color="#002544" stop-opacity="1"></stop></linearGradient></defs><defs><linearGradient id="grad2_0" x1="0%" y1="100%" x2="66.7%" y2="0%"><stop offset="20%" stop-color="#a86fff" stop-opacity="1"></stop><stop offset="80%" stop-color="#a86fff" stop-opacity="1"></stop></linearGradient></defs><defs><linearGradient id="grad2_1" x1="0%" y1="100%" x2="66.7%" y2="0%"><stop offset="20%" stop-color="#7465de" stop-opacity="1"></stop><stop offset="80%" stop-color="#a86fff" stop-opacity="1"></stop></linearGradient></defs><defs><linearGradient id="grad2_2" x1="0%" y1="100%" x2="66.7%" y2="0%"><stop offset="20%" stop-color="#7465de" stop-opacity="1"></stop><stop offset="80%" stop-color="#4558b9" stop-opacity="1"></stop></linearGradient></defs><defs><linearGradient id="grad2_3" x1="0%" y1="100%" x2="66.7%" y2="0%"><stop offset="20%" stop-color="#1b4992" stop-opacity="1"></stop><stop offset="80%" stop-color="#4558b9" stop-opacity="1"></stop></linearGradient></defs><defs><linearGradient id="grad2_4" x1="0%" y1="100%" x2="66.7%" y2="0%"><stop offset="20%" stop-color="#1b4992" stop-opacity="1"></stop><stop offset="80%" stop-color="#00376a" stop-opacity="1"></stop></linearGradient></defs><defs><linearGradient id="grad2_5" x1="0%" y1="100%" x2="66.7%" y2="0%"><stop offset="20%" stop-color="#002544" stop-opacity="1"></stop><stop offset="80%" stop-color="#00376a" stop-opacity="1"></stop></linearGradient></defs><defs><linearGradient id="grad2_6" x1="0%" y1="100%" x2="66.7%" y2="0%"><stop offset="20%" stop-color="#002544" stop-opacity="1"></stop><stop offset="80%" stop-color="#001220" stop-opacity="1"></stop></linearGradient></defs><g transform="translate(900, 600)"><path d="M-540.8 0C-509.1 -38.6 -477.3 -77.2 -472.3 -126.6C-467.4 -175.9 -489.3 -235.9 -468.4 -270.4C-447.4 -304.9 -383.7 -314 -346.5 -346.5C-309.3 -379 -298.8 -435 -266.5 -461.6C-234.2 -488.2 -180.3 -485.3 -132.3 -493.6C-84.2 -501.9 -42.1 -521.4 0 -540.8L0 0Z" fill="#001c31"></path><path d="M-463.6 0C-436.3 -33.1 -409.1 -66.2 -404.9 -108.5C-400.6 -150.8 -419.4 -202.2 -401.5 -231.8C-383.5 -261.4 -328.8 -269.1 -297 -297C-265.1 -324.9 -256.1 -372.9 -228.4 -395.6C-200.8 -418.4 -154.5 -416 -113.4 -423.1C-72.2 -430.2 -36.1 -446.9 0 -463.6L0 0Z" fill="#002e57"></path><path d="M-386.3 0C-363.6 -27.6 -340.9 -55.2 -337.4 -90.4C-333.9 -125.6 -349.5 -168.5 -334.6 -193.2C-319.6 -217.8 -274 -224.3 -247.5 -247.5C-220.9 -270.7 -213.4 -310.7 -190.4 -329.7C-167.3 -348.7 -128.8 -346.6 -94.5 -352.6C-60.2 -358.5 -30.1 -372.4 0 -386.3L0 0Z" fill="#05407e"></path><path d="M-309 0C-290.9 -22.1 -272.7 -44.1 -269.9 -72.3C-267.1 -100.5 -279.6 -134.8 -267.6 -154.5C-255.7 -174.2 -219.2 -179.4 -198 -198C-176.7 -216.6 -170.7 -248.6 -152.3 -263.8C-133.9 -279 -103 -277.3 -75.6 -282.1C-48.1 -286.8 -24.1 -297.9 0 -309L0 0Z" fill="#3051a6"></path><path d="M-231.8 0C-218.2 -16.6 -204.5 -33.1 -202.4 -54.2C-200.3 -75.4 -209.7 -101.1 -200.7 -115.9C-191.8 -130.7 -164.4 -134.6 -148.5 -148.5C-132.6 -162.4 -128 -186.4 -114.2 -197.8C-100.4 -209.2 -77.3 -208 -56.7 -211.5C-36.1 -215.1 -18 -223.4 0 -231.8L0 0Z" fill="#5c5fcc"></path><path d="M-154.5 0C-145.4 -11 -136.4 -22.1 -135 -36.2C-133.5 -50.3 -139.8 -67.4 -133.8 -77.3C-127.8 -87.1 -109.6 -89.7 -99 -99C-88.4 -108.3 -85.4 -124.3 -76.1 -131.9C-66.9 -139.5 -51.5 -138.7 -37.8 -141C-24.1 -143.4 -12 -149 0 -154.5L0 0Z" fill="#8d6bef"></path><path d="M-77.3 0C-72.7 -5.5 -68.2 -11 -67.5 -18.1C-66.8 -25.1 -69.9 -33.7 -66.9 -38.6C-63.9 -43.6 -54.8 -44.9 -49.5 -49.5C-44.2 -54.1 -42.7 -62.1 -38.1 -65.9C-33.5 -69.7 -25.8 -69.3 -18.9 -70.5C-12 -71.7 -6 -74.5 0 -77.3L0 0Z" fill="#a86fff"></path></g><g transform="translate(0, 0)"><path d="M540.8 0C527.5 44.4 514.2 88.8 505.2 135.4C496.2 181.9 491.6 230.6 468.4 270.4C445.2 310.2 403.5 341 362 362C320.6 383.1 279.5 394.3 244 422.6C208.5 450.9 178.7 496.2 139 518.7C99.3 541.2 49.6 541 0 540.8L0 0Z" fill="#001c31"></path><path d="M463.6 0C452.1 38.1 440.7 76.1 433 116C425.3 155.9 421.3 197.7 401.5 231.8C381.6 265.9 345.8 292.3 310.3 310.3C274.8 328.4 239.5 338 209.1 362.2C178.7 386.5 153.2 425.3 119.1 444.6C85.1 463.9 42.5 463.7 0 463.6L0 0Z" fill="#002e57"></path><path d="M386.3 0C376.8 31.7 367.3 63.4 360.8 96.7C354.4 129.9 351.1 164.7 334.6 193.2C318 221.6 288.2 243.6 258.6 258.6C229 273.6 199.6 281.7 174.3 301.9C148.9 322.1 127.6 354.4 99.3 370.5C70.9 386.6 35.5 386.5 0 386.3L0 0Z" fill="#05407e"></path><path d="M309 0C301.4 25.4 293.8 50.7 288.7 77.3C283.5 104 280.9 131.8 267.6 154.5C254.4 177.2 230.6 194.9 206.9 206.9C183.2 218.9 159.7 225.3 139.4 241.5C119.2 257.7 102.1 283.5 79.4 296.4C56.7 309.3 28.4 309.2 0 309L0 0Z" fill="#3051a6"></path><path d="M231.8 0C226.1 19 220.4 38.1 216.5 58C212.7 78 210.7 98.8 200.7 115.9C190.8 132.9 172.9 146.1 155.2 155.2C137.4 164.2 119.8 169 104.6 181.1C89.4 193.2 76.6 212.6 59.6 222.3C42.5 232 21.3 231.9 0 231.8L0 0Z" fill="#5c5fcc"></path><path d="M154.5 0C150.7 12.7 146.9 25.4 144.3 38.7C141.8 52 140.4 65.9 133.8 77.3C127.2 88.6 115.3 97.4 103.4 103.4C91.6 109.5 79.8 112.7 69.7 120.7C59.6 128.8 51.1 141.8 39.7 148.2C28.4 154.6 14.2 154.6 0 154.5L0 0Z" fill="#8d6bef"></path><path d="M77.3 0C75.4 6.3 73.5 12.7 72.2 19.3C70.9 26 70.2 32.9 66.9 38.6C63.6 44.3 57.6 48.7 51.7 51.7C45.8 54.7 39.9 56.3 34.9 60.4C29.8 64.4 25.5 70.9 19.9 74.1C14.2 77.3 7.1 77.3 0 77.3L0 0Z" fill="#a86fff"></path></g></svg>