<svg width="390" height="844" viewBox="0 0 390 844" fill="none" xmlns="http://www.w3.org/2000/svg">
<g clip-path="url(#clip0_154_3)">
<rect width="390" height="844" fill="white"/>
<path d="M390 27H0V871H390V27Z" fill="#001220"/>
<path d="M582.509 521C496.536 498.245 410.562 475.376 354.995 432.355C299.294 389.335 273.731 326.05 206.728 286.199C139.59 246.349 30.8787 229.707 -22.5353 180.913C-75.9493 132.006 -74.2003 51.0594 -72.3166 -30L582.509 -30L582.509 521Z" fill="#1B4992"/>
<path d="M582.509 245.557C539.59 234.122 496.536 222.688 468.685 201.178C440.834 179.668 428.187 148.082 394.551 128.157C361.05 108.118 306.694 99.8537 280.054 75.4C253.28 51.0596 254.222 10.5299 255.029 -29.9998L582.509 -29.9998V245.557Z" fill="#A86FFF"/>
<path d="M0 378C22.1253 419.405 44.346 460.811 71.7166 468.697C99.0872 476.584 131.703 450.952 149.728 463.612C167.752 476.273 171.281 527.121 200.749 532.829C230.218 538.536 285.531 498.895 315 502.735C344.373 506.574 347.902 553.791 351.431 590.319C354.864 626.951 358.392 652.894 376.608 674.582C394.823 696.271 427.82 713.497 433.733 739.44C439.741 765.28 418.665 799.836 423.529 829.93C428.488 860.024 459.196 885.552 490 911.184L0 911.184L0 378Z" fill="#002E57"/>
<path d="M0 555.763C14.782 583.366 29.564 610.97 47.7793 616.158C66.0899 621.451 87.7384 604.328 99.8501 612.838C111.866 621.243 114.251 655.177 133.801 658.913C153.447 662.752 190.354 636.394 210 638.885C229.55 641.479 231.935 672.922 234.223 697.309C236.608 721.695 238.896 739.025 251.104 753.45C263.215 767.874 285.15 779.393 289.155 796.619C293.161 813.949 279.142 836.987 282.384 857.015C285.627 877.043 306.131 894.165 326.635 911.184L0 911.184L0 555.763Z" fill="#5C5FCC"/>
<path d="M0 733.421C7.34332 747.223 14.782 761.025 23.9373 763.723C32.9973 766.317 43.8692 757.808 49.8774 761.959C55.8856 766.214 57.1253 783.129 66.9482 785.1C76.7711 786.968 95.1771 773.789 105 775.034C114.823 776.28 115.967 792.053 117.112 804.194C118.256 816.44 119.496 825.053 125.504 832.317C131.608 839.581 142.575 845.288 144.578 853.902C146.58 862.515 139.523 874.033 141.144 884.099C142.861 894.165 153.065 902.675 163.365 911.184H0L0 733.421Z" fill="#A86FFF"/>
<path d="M58.3956 576L53.951 560.727H58.0302L60.3345 570.735H60.4613L63.0938 560.727H66.4197L69.0522 570.757H69.179L71.4908 560.727H75.5625L71.1254 576H67.5682L64.8164 566.738H64.6971L61.9453 576H58.3956ZM79.0451 576.194C78.3143 576.194 77.6655 576.072 77.0987 575.828C76.5369 575.58 76.092 575.207 75.7638 574.71C75.4407 574.208 75.2791 573.579 75.2791 572.823C75.2791 572.187 75.391 571.65 75.6147 571.212C75.8384 570.775 76.1467 570.419 76.5394 570.146C76.9322 569.873 77.3846 569.666 77.8967 569.527C78.4087 569.383 78.9556 569.286 79.5373 569.236C80.1886 569.176 80.7131 569.114 81.1108 569.05C81.5085 568.98 81.7969 568.883 81.9759 568.759C82.1598 568.63 82.2518 568.448 82.2518 568.214V568.177C82.2518 567.794 82.12 567.499 81.8565 567.29C81.593 567.081 81.2376 566.977 80.7901 566.977C80.3079 566.977 79.9201 567.081 79.6268 567.29C79.3335 567.499 79.147 567.787 79.0675 568.155L75.7042 568.036C75.8036 567.339 76.0597 566.718 76.4723 566.171C76.8899 565.619 77.4616 565.187 78.1875 564.874C78.9183 564.555 79.7958 564.396 80.82 564.396C81.5508 564.396 82.2244 564.483 82.8409 564.657C83.4574 564.826 83.9943 565.075 84.4517 565.403C84.9091 565.726 85.2621 566.124 85.5107 566.596C85.7642 567.069 85.891 567.608 85.891 568.214V576H82.4606V574.404H82.3711C82.1673 574.792 81.9063 575.12 81.5881 575.388C81.2749 575.657 80.9045 575.858 80.4769 575.993C80.0543 576.127 79.5771 576.194 79.0451 576.194ZM80.1712 573.808C80.5639 573.808 80.9169 573.728 81.2301 573.569C81.5483 573.41 81.8018 573.191 81.9908 572.913C82.1797 572.629 82.2741 572.301 82.2741 571.928V570.839C82.1697 570.894 82.043 570.944 81.8938 570.989C81.7496 571.033 81.5906 571.076 81.4165 571.115C81.2425 571.155 81.0636 571.19 80.8796 571.22C80.6957 571.25 80.5192 571.277 80.3501 571.302C80.0071 571.357 79.7138 571.441 79.4702 571.555C79.2315 571.67 79.0476 571.819 78.9183 572.003C78.794 572.182 78.7319 572.396 78.7319 572.644C78.7319 573.022 78.8661 573.31 79.1346 573.509C79.408 573.708 79.7536 573.808 80.1712 573.808ZM88.1207 576V564.545H91.7674V576H88.1207ZM89.9478 563.211C89.4357 563.211 88.9957 563.042 88.6278 562.703C88.2599 562.36 88.076 561.948 88.076 561.466C88.076 560.988 88.2599 560.581 88.6278 560.243C88.9957 559.9 89.4357 559.728 89.9478 559.728C90.4648 559.728 90.9048 559.9 91.2678 560.243C91.6357 560.581 91.8196 560.988 91.8196 561.466C91.8196 561.948 91.6357 562.36 91.2678 562.703C90.9048 563.042 90.4648 563.211 89.9478 563.211ZM100.554 564.545V567.23H93.3279V564.545H100.554ZM94.8417 561.801H98.4884V572.398C98.4884 572.622 98.5232 572.803 98.5928 572.942C98.6673 573.077 98.7742 573.174 98.9134 573.233C99.0526 573.288 99.2192 573.315 99.4131 573.315C99.5523 573.315 99.699 573.303 99.8531 573.278C100.012 573.248 100.131 573.223 100.211 573.203L100.763 575.836C100.589 575.886 100.343 575.948 100.025 576.022C99.7114 576.097 99.336 576.144 98.8985 576.164C98.0434 576.204 97.3101 576.104 96.6986 575.866C96.0921 575.622 95.6272 575.244 95.3041 574.732C94.9859 574.22 94.8318 573.576 94.8417 572.801V561.801ZM102.415 576V564.545H106.061V576H102.415ZM104.242 563.211C103.73 563.211 103.29 563.042 102.922 562.703C102.554 562.36 102.37 561.948 102.37 561.466C102.37 560.988 102.554 560.581 102.922 560.243C103.29 559.9 103.73 559.728 104.242 559.728C104.759 559.728 105.199 559.9 105.562 560.243C105.93 560.581 106.114 560.988 106.114 561.466C106.114 561.948 105.93 562.36 105.562 562.703C105.199 563.042 104.759 563.211 104.242 563.211ZM112.029 569.467V576H108.382V564.545H111.85V566.648H111.977C112.23 565.947 112.663 565.398 113.275 565C113.886 564.598 114.614 564.396 115.46 564.396C116.265 564.396 116.963 564.578 117.555 564.941C118.152 565.299 118.614 565.801 118.942 566.447C119.275 567.088 119.439 567.839 119.434 568.699V576H115.788V569.415C115.793 568.779 115.631 568.282 115.303 567.924C114.98 567.566 114.53 567.387 113.953 567.387C113.57 567.387 113.232 567.471 112.939 567.64C112.651 567.804 112.427 568.04 112.268 568.349C112.114 568.657 112.034 569.03 112.029 569.467ZM127.032 580.534C125.943 580.534 125.011 580.382 124.235 580.079C123.459 579.776 122.85 579.361 122.408 578.834C121.965 578.307 121.699 577.71 121.61 577.044L125.063 576.85C125.127 577.084 125.247 577.288 125.421 577.462C125.6 577.636 125.831 577.77 126.114 577.864C126.403 577.959 126.741 578.006 127.128 578.006C127.74 578.006 128.245 577.857 128.642 577.559C129.045 577.265 129.246 576.751 129.246 576.015V574.001H129.12C128.975 574.354 128.757 574.67 128.463 574.949C128.17 575.227 127.805 575.446 127.367 575.605C126.935 575.764 126.437 575.843 125.876 575.843C125.04 575.843 124.275 575.65 123.579 575.262C122.888 574.869 122.333 574.262 121.916 573.442C121.503 572.617 121.297 571.555 121.297 570.258C121.297 568.92 121.511 567.819 121.938 566.954C122.366 566.084 122.925 565.44 123.616 565.023C124.312 564.605 125.06 564.396 125.861 564.396C126.462 564.396 126.977 564.501 127.404 564.71C127.837 564.913 128.192 565.177 128.471 565.5C128.749 565.823 128.96 566.159 129.105 566.507H129.209V564.545H132.841V576.045C132.841 577.014 132.597 577.832 132.11 578.498C131.623 579.164 130.942 579.669 130.067 580.012C129.192 580.36 128.18 580.534 127.032 580.534ZM127.143 573.189C127.586 573.189 127.964 573.072 128.277 572.838C128.59 572.604 128.831 572.269 129 571.831C129.169 571.394 129.254 570.869 129.254 570.258C129.254 569.636 129.169 569.102 129 568.654C128.836 568.202 128.595 567.854 128.277 567.61C127.964 567.367 127.586 567.245 127.143 567.245C126.691 567.245 126.308 567.369 125.995 567.618C125.682 567.866 125.443 568.217 125.279 568.669C125.12 569.117 125.04 569.646 125.04 570.258C125.04 570.869 125.122 571.394 125.286 571.831C125.451 572.269 125.687 572.604 125.995 572.838C126.308 573.072 126.691 573.189 127.143 573.189ZM146.188 564.545V567.23H138.82V564.545H146.188ZM140.356 576V563.964C140.356 563.079 140.523 562.346 140.856 561.764C141.189 561.177 141.651 560.74 142.243 560.451C142.834 560.158 143.518 560.011 144.294 560.011C144.801 560.011 145.278 560.051 145.725 560.131C146.178 560.205 146.513 560.272 146.732 560.332L146.15 563.002C146.016 562.957 145.852 562.92 145.658 562.89C145.469 562.86 145.29 562.845 145.121 562.845C144.694 562.845 144.4 562.94 144.241 563.129C144.082 563.317 144.003 563.576 144.003 563.904V576H140.356ZM152.92 576.216C151.717 576.216 150.683 575.97 149.818 575.478C148.957 574.981 148.294 574.29 147.826 573.405C147.364 572.515 147.133 571.483 147.133 570.31C147.133 569.132 147.364 568.1 147.826 567.215C148.294 566.325 148.957 565.634 149.818 565.142C150.683 564.645 151.717 564.396 152.92 564.396C154.123 564.396 155.155 564.645 156.015 565.142C156.88 565.634 157.543 566.325 158.006 567.215C158.473 568.1 158.707 569.132 158.707 570.31C158.707 571.483 158.473 572.515 158.006 573.405C157.543 574.29 156.88 574.981 156.015 575.478C155.155 575.97 154.123 576.216 152.92 576.216ZM152.942 573.464C153.38 573.464 153.75 573.33 154.053 573.062C154.357 572.793 154.588 572.42 154.747 571.943C154.911 571.466 154.993 570.914 154.993 570.288C154.993 569.651 154.911 569.094 154.747 568.617C154.588 568.14 154.357 567.767 154.053 567.499C153.75 567.23 153.38 567.096 152.942 567.096C152.49 567.096 152.107 567.23 151.794 567.499C151.486 567.767 151.249 568.14 151.085 568.617C150.926 569.094 150.847 569.651 150.847 570.288C150.847 570.914 150.926 571.466 151.085 571.943C151.249 572.42 151.486 572.793 151.794 573.062C152.107 573.33 152.49 573.464 152.942 573.464ZM160.575 576V564.545H164.117V566.634H164.236C164.445 565.878 164.786 565.316 165.258 564.948C165.73 564.575 166.28 564.389 166.906 564.389C167.075 564.389 167.249 564.401 167.428 564.426C167.607 564.446 167.774 564.478 167.928 564.523V567.692C167.754 567.633 167.525 567.586 167.242 567.551C166.963 567.516 166.715 567.499 166.496 567.499C166.063 567.499 165.673 567.596 165.325 567.789C164.982 567.978 164.711 568.244 164.512 568.587C164.318 568.925 164.222 569.323 164.222 569.781V576H160.575ZM179.272 576.216C178.069 576.216 177.035 575.97 176.17 575.478C175.31 574.981 174.646 574.29 174.179 573.405C173.717 572.515 173.485 571.483 173.485 570.31C173.485 569.132 173.717 568.1 174.179 567.215C174.646 566.325 175.31 565.634 176.17 565.142C177.035 564.645 178.069 564.396 179.272 564.396C180.475 564.396 181.507 564.645 182.367 565.142C183.232 565.634 183.896 566.325 184.358 567.215C184.826 568.1 185.059 569.132 185.059 570.31C185.059 571.483 184.826 572.515 184.358 573.405C183.896 574.29 183.232 574.981 182.367 575.478C181.507 575.97 180.475 576.216 179.272 576.216ZM179.295 573.464C179.732 573.464 180.103 573.33 180.406 573.062C180.709 572.793 180.94 572.42 181.099 571.943C181.263 571.466 181.346 570.914 181.346 570.288C181.346 569.651 181.263 569.094 181.099 568.617C180.94 568.14 180.709 567.767 180.406 567.499C180.103 567.23 179.732 567.096 179.295 567.096C178.842 567.096 178.46 567.23 178.146 567.499C177.838 567.767 177.602 568.14 177.438 568.617C177.279 569.094 177.199 569.651 177.199 570.288C177.199 570.914 177.279 571.466 177.438 571.943C177.602 572.42 177.838 572.793 178.146 573.062C178.46 573.33 178.842 573.464 179.295 573.464ZM193.393 564.545V567.23H186.167V564.545H193.393ZM187.681 561.801H191.327V572.398C191.327 572.622 191.362 572.803 191.432 572.942C191.506 573.077 191.613 573.174 191.752 573.233C191.892 573.288 192.058 573.315 192.252 573.315C192.391 573.315 192.538 573.303 192.692 573.278C192.851 573.248 192.97 573.223 193.05 573.203L193.602 575.836C193.428 575.886 193.182 575.948 192.863 576.022C192.55 576.097 192.175 576.144 191.737 576.164C190.882 576.204 190.149 576.104 189.537 575.866C188.931 575.622 188.466 575.244 188.143 574.732C187.825 574.22 187.671 573.576 187.681 572.801V561.801ZM199.146 569.467V576H195.5V560.727H199.027V566.648H199.154C199.412 565.942 199.835 565.391 200.422 564.993C201.013 564.595 201.737 564.396 202.592 564.396C203.397 564.396 204.098 564.575 204.695 564.933C205.291 565.286 205.754 565.786 206.082 566.432C206.415 567.078 206.579 567.834 206.574 568.699V576H202.927V569.415C202.932 568.779 202.773 568.282 202.45 567.924C202.127 567.566 201.672 567.387 201.085 567.387C200.702 567.387 200.364 567.471 200.071 567.64C199.783 567.804 199.556 568.04 199.392 568.349C199.233 568.657 199.151 569.03 199.146 569.467ZM214.205 576.216C213.006 576.216 211.972 575.98 211.102 575.508C210.237 575.031 209.571 574.352 209.104 573.472C208.641 572.587 208.41 571.536 208.41 570.317C208.41 569.134 208.644 568.1 209.111 567.215C209.579 566.325 210.237 565.634 211.087 565.142C211.938 564.645 212.939 564.396 214.093 564.396C214.908 564.396 215.654 564.523 216.33 564.777C217.006 565.03 217.59 565.406 218.082 565.903C218.575 566.4 218.957 567.014 219.231 567.745C219.504 568.471 219.641 569.303 219.641 570.243V571.153H209.685V569.035H216.248C216.243 568.647 216.151 568.301 215.972 567.998C215.793 567.695 215.547 567.459 215.234 567.29C214.926 567.116 214.57 567.029 214.167 567.029C213.76 567.029 213.394 567.121 213.071 567.305C212.748 567.484 212.492 567.73 212.303 568.043C212.114 568.351 212.015 568.702 212.005 569.094V571.25C212.005 571.717 212.097 572.127 212.281 572.48C212.465 572.828 212.726 573.099 213.064 573.293C213.402 573.487 213.804 573.584 214.272 573.584C214.595 573.584 214.888 573.539 215.152 573.45C215.415 573.36 215.641 573.228 215.83 573.054C216.019 572.88 216.161 572.667 216.255 572.413L219.604 572.51C219.465 573.261 219.159 573.914 218.687 574.471C218.219 575.023 217.605 575.453 216.845 575.761C216.084 576.065 215.204 576.216 214.205 576.216ZM221.504 576V564.545H225.046V566.634H225.165C225.374 565.878 225.714 565.316 226.187 564.948C226.659 564.575 227.208 564.389 227.835 564.389C228.004 564.389 228.178 564.401 228.357 564.426C228.536 564.446 228.702 564.478 228.857 564.523V567.692C228.683 567.633 228.454 567.586 228.17 567.551C227.892 567.516 227.643 567.499 227.425 567.499C226.992 567.499 226.602 567.596 226.254 567.789C225.911 567.978 225.64 568.244 225.441 568.587C225.247 568.925 225.15 569.323 225.15 569.781V576H221.504ZM234.854 580.295V564.545H238.464V566.507H238.575C238.725 566.159 238.936 565.823 239.209 565.5C239.488 565.177 239.841 564.913 240.268 564.71C240.701 564.501 241.218 564.396 241.819 564.396C242.615 564.396 243.358 564.605 244.049 565.023C244.745 565.44 245.307 566.084 245.734 566.954C246.162 567.824 246.376 568.933 246.376 570.28C246.376 571.578 246.169 572.664 245.757 573.539C245.349 574.414 244.797 575.07 244.101 575.508C243.41 575.945 242.642 576.164 241.797 576.164C241.22 576.164 240.721 576.07 240.298 575.881C239.875 575.692 239.52 575.443 239.232 575.135C238.948 574.827 238.729 574.496 238.575 574.143H238.501V580.295H234.854ZM238.426 570.273C238.426 570.889 238.508 571.426 238.672 571.884C238.841 572.341 239.082 572.696 239.396 572.95C239.714 573.199 240.094 573.323 240.537 573.323C240.984 573.323 241.364 573.199 241.678 572.95C241.991 572.696 242.227 572.341 242.386 571.884C242.55 571.426 242.632 570.889 242.632 570.273C242.632 569.656 242.55 569.122 242.386 568.669C242.227 568.217 241.991 567.866 241.678 567.618C241.369 567.369 240.989 567.245 240.537 567.245C240.089 567.245 239.709 567.367 239.396 567.61C239.082 567.854 238.841 568.202 238.672 568.654C238.508 569.107 238.426 569.646 238.426 570.273ZM251.933 560.727V576H248.287V560.727H251.933ZM257.484 576.194C256.753 576.194 256.104 576.072 255.537 575.828C254.975 575.58 254.53 575.207 254.202 574.71C253.879 574.208 253.718 573.579 253.718 572.823C253.718 572.187 253.829 571.65 254.053 571.212C254.277 570.775 254.585 570.419 254.978 570.146C255.371 569.873 255.823 569.666 256.335 569.527C256.847 569.383 257.394 569.286 257.976 569.236C258.627 569.176 259.152 569.114 259.549 569.05C259.947 568.98 260.235 568.883 260.414 568.759C260.598 568.63 260.69 568.448 260.69 568.214V568.177C260.69 567.794 260.559 567.499 260.295 567.29C260.032 567.081 259.676 566.977 259.229 566.977C258.746 566.977 258.359 567.081 258.065 567.29C257.772 567.499 257.585 567.787 257.506 568.155L254.143 568.036C254.242 567.339 254.498 566.718 254.911 566.171C255.328 565.619 255.9 565.187 256.626 564.874C257.357 564.555 258.234 564.396 259.258 564.396C259.989 564.396 260.663 564.483 261.279 564.657C261.896 564.826 262.433 565.075 262.89 565.403C263.348 565.726 263.701 566.124 263.949 566.596C264.203 567.069 264.329 567.608 264.329 568.214V576H260.899V574.404H260.81C260.606 574.792 260.345 575.12 260.027 575.388C259.713 575.657 259.343 575.858 258.915 575.993C258.493 576.127 258.016 576.194 257.484 576.194ZM258.61 573.808C259.002 573.808 259.355 573.728 259.669 573.569C259.987 573.41 260.24 573.191 260.429 572.913C260.618 572.629 260.713 572.301 260.713 571.928V570.839C260.608 570.894 260.481 570.944 260.332 570.989C260.188 571.033 260.029 571.076 259.855 571.115C259.681 571.155 259.502 571.19 259.318 571.22C259.134 571.25 258.958 571.277 258.789 571.302C258.446 571.357 258.152 571.441 257.909 571.555C257.67 571.67 257.486 571.819 257.357 572.003C257.233 572.182 257.17 572.396 257.17 572.644C257.17 573.022 257.305 573.31 257.573 573.509C257.847 573.708 258.192 573.808 258.61 573.808ZM268.379 580.295C267.941 580.295 267.529 580.261 267.141 580.191C266.753 580.126 266.42 580.039 266.142 579.93L266.947 577.283C267.305 577.402 267.628 577.472 267.916 577.491C268.21 577.511 268.461 577.464 268.67 577.35C268.883 577.24 269.047 577.044 269.162 576.761L269.304 576.418L265.232 564.545H269.05L271.16 572.719H271.28L273.42 564.545H277.261L272.943 577.096C272.734 577.723 272.438 578.275 272.055 578.752C271.677 579.234 271.188 579.612 270.586 579.885C269.99 580.159 269.254 580.295 268.379 580.295ZM283.644 576.216C282.446 576.216 281.412 575.98 280.542 575.508C279.677 575.031 279.011 574.352 278.543 573.472C278.081 572.587 277.85 571.536 277.85 570.317C277.85 569.134 278.083 568.1 278.551 567.215C279.018 566.325 279.677 565.634 280.527 565.142C281.377 564.645 282.379 564.396 283.532 564.396C284.348 564.396 285.093 564.523 285.769 564.777C286.446 565.03 287.03 565.406 287.522 565.903C288.014 566.4 288.397 567.014 288.67 567.745C288.944 568.471 289.081 569.303 289.081 570.243V571.153H279.125V569.035H285.687C285.682 568.647 285.59 568.301 285.411 567.998C285.233 567.695 284.986 567.459 284.673 567.29C284.365 567.116 284.009 567.029 283.607 567.029C283.199 567.029 282.834 567.121 282.511 567.305C282.187 567.484 281.931 567.73 281.742 568.043C281.554 568.351 281.454 568.702 281.444 569.094V571.25C281.444 571.717 281.536 572.127 281.72 572.48C281.904 572.828 282.165 573.099 282.503 573.293C282.841 573.487 283.244 573.584 283.711 573.584C284.034 573.584 284.328 573.539 284.591 573.45C284.855 573.36 285.081 573.228 285.27 573.054C285.459 572.88 285.6 572.667 285.695 572.413L289.043 572.51C288.904 573.261 288.598 573.914 288.126 574.471C287.659 575.023 287.045 575.453 286.284 575.761C285.523 576.065 284.643 576.216 283.644 576.216ZM290.943 576V564.545H294.485V566.634H294.605C294.813 565.878 295.154 565.316 295.626 564.948C296.099 564.575 296.648 564.389 297.274 564.389C297.443 564.389 297.617 564.401 297.796 564.426C297.975 564.446 298.142 564.478 298.296 564.523V567.692C298.122 567.633 297.893 567.586 297.61 567.551C297.331 567.516 297.083 567.499 296.864 567.499C296.432 567.499 296.041 567.596 295.693 567.789C295.35 567.978 295.079 568.244 294.881 568.587C294.687 568.925 294.59 569.323 294.59 569.781V576H290.943ZM309.782 568.043L306.434 568.132C306.399 567.894 306.305 567.683 306.15 567.499C305.996 567.31 305.795 567.163 305.546 567.059C305.303 566.949 305.019 566.895 304.696 566.895C304.274 566.895 303.913 566.979 303.615 567.148C303.322 567.317 303.177 567.546 303.182 567.834C303.177 568.058 303.267 568.252 303.451 568.416C303.64 568.58 303.975 568.712 304.458 568.811L306.665 569.229C307.809 569.447 308.659 569.81 309.215 570.317C309.777 570.825 310.061 571.496 310.066 572.331C310.061 573.116 309.827 573.8 309.365 574.382C308.907 574.963 308.281 575.416 307.485 575.739C306.69 576.057 305.78 576.216 304.756 576.216C303.12 576.216 301.83 575.881 300.886 575.21C299.946 574.533 299.409 573.629 299.275 572.495L302.877 572.406C302.956 572.823 303.163 573.141 303.496 573.36C303.829 573.579 304.254 573.688 304.771 573.688C305.238 573.688 305.619 573.601 305.912 573.427C306.205 573.253 306.354 573.022 306.359 572.734C306.354 572.475 306.24 572.269 306.016 572.115C305.793 571.956 305.442 571.831 304.965 571.742L302.966 571.362C301.818 571.153 300.963 570.767 300.401 570.206C299.839 569.639 299.561 568.918 299.566 568.043C299.561 567.277 299.764 566.624 300.177 566.082C300.59 565.535 301.176 565.117 301.937 564.829C302.698 564.54 303.595 564.396 304.629 564.396C306.18 564.396 307.403 564.722 308.298 565.373C309.193 566.02 309.688 566.909 309.782 568.043ZM322.838 564.545V567.23H315.612V564.545H322.838ZM317.126 561.801H320.773V572.398C320.773 572.622 320.807 572.803 320.877 572.942C320.952 573.077 321.058 573.174 321.198 573.233C321.337 573.288 321.503 573.315 321.697 573.315C321.836 573.315 321.983 573.303 322.137 573.278C322.296 573.248 322.416 573.223 322.495 573.203L323.047 575.836C322.873 575.886 322.627 575.948 322.309 576.022C321.996 576.097 321.62 576.144 321.183 576.164C320.328 576.204 319.594 576.104 318.983 575.866C318.376 575.622 317.911 575.244 317.588 574.732C317.27 574.22 317.116 573.576 317.126 572.801V561.801ZM329.923 576.216C328.72 576.216 327.686 575.97 326.82 575.478C325.96 574.981 325.297 574.29 324.829 573.405C324.367 572.515 324.136 571.483 324.136 570.31C324.136 569.132 324.367 568.1 324.829 567.215C325.297 566.325 325.96 565.634 326.82 565.142C327.686 564.645 328.72 564.396 329.923 564.396C331.126 564.396 332.157 564.645 333.018 565.142C333.883 565.634 334.546 566.325 335.009 567.215C335.476 568.1 335.71 569.132 335.71 570.31C335.71 571.483 335.476 572.515 335.009 573.405C334.546 574.29 333.883 574.981 333.018 575.478C332.157 575.97 331.126 576.216 329.923 576.216ZM329.945 573.464C330.383 573.464 330.753 573.33 331.056 573.062C331.36 572.793 331.591 572.42 331.75 571.943C331.914 571.466 331.996 570.914 331.996 570.288C331.996 569.651 331.914 569.094 331.75 568.617C331.591 568.14 331.36 567.767 331.056 567.499C330.753 567.23 330.383 567.096 329.945 567.096C329.493 567.096 329.11 567.23 328.797 567.499C328.488 567.767 328.252 568.14 328.088 568.617C327.929 569.094 327.85 569.651 327.85 570.288C327.85 570.914 327.929 571.466 328.088 571.943C328.252 572.42 328.488 572.793 328.797 573.062C329.11 573.33 329.493 573.464 329.945 573.464ZM151.92 601.194C151.189 601.194 150.54 601.072 149.973 600.828C149.411 600.58 148.966 600.207 148.638 599.71C148.315 599.208 148.154 598.579 148.154 597.823C148.154 597.187 148.265 596.65 148.489 596.212C148.713 595.775 149.021 595.419 149.414 595.146C149.807 594.873 150.259 594.666 150.771 594.527C151.283 594.383 151.83 594.286 152.412 594.236C153.063 594.176 153.588 594.114 153.985 594.05C154.383 593.98 154.671 593.883 154.85 593.759C155.034 593.63 155.126 593.448 155.126 593.214V593.177C155.126 592.794 154.995 592.499 154.731 592.29C154.468 592.081 154.112 591.977 153.665 591.977C153.182 591.977 152.795 592.081 152.501 592.29C152.208 592.499 152.022 592.787 151.942 593.155L148.579 593.036C148.678 592.339 148.934 591.718 149.347 591.171C149.764 590.619 150.336 590.187 151.062 589.874C151.793 589.555 152.67 589.396 153.694 589.396C154.425 589.396 155.099 589.483 155.715 589.657C156.332 589.826 156.869 590.075 157.326 590.403C157.784 590.726 158.137 591.124 158.385 591.596C158.639 592.069 158.765 592.608 158.765 593.214V601H155.335V599.404H155.246C155.042 599.792 154.781 600.12 154.463 600.388C154.149 600.657 153.779 600.858 153.351 600.993C152.929 601.127 152.452 601.194 151.92 601.194ZM153.046 598.808C153.438 598.808 153.791 598.728 154.105 598.569C154.423 598.41 154.676 598.191 154.865 597.913C155.054 597.629 155.149 597.301 155.149 596.928V595.839C155.044 595.894 154.917 595.944 154.768 595.989C154.624 596.033 154.465 596.076 154.291 596.115C154.117 596.155 153.938 596.19 153.754 596.22C153.57 596.25 153.394 596.277 153.225 596.302C152.882 596.357 152.588 596.441 152.345 596.555C152.106 596.67 151.922 596.819 151.793 597.003C151.669 597.182 151.606 597.396 151.606 597.644C151.606 598.022 151.741 598.31 152.009 598.509C152.283 598.708 152.628 598.808 153.046 598.808ZM164.642 594.467V601H160.995V589.545H164.463V591.648H164.59C164.843 590.947 165.276 590.398 165.887 590C166.499 589.598 167.227 589.396 168.072 589.396C168.878 589.396 169.576 589.578 170.168 589.941C170.764 590.299 171.227 590.801 171.555 591.447C171.888 592.088 172.052 592.839 172.047 593.699V601H168.4V594.415C168.405 593.779 168.244 593.282 167.916 592.924C167.593 592.566 167.143 592.387 166.566 592.387C166.183 592.387 165.845 592.471 165.552 592.64C165.263 592.804 165.04 593.04 164.881 593.349C164.726 593.657 164.647 594.03 164.642 594.467ZM184.305 593.043L180.957 593.132C180.922 592.894 180.828 592.683 180.673 592.499C180.519 592.31 180.318 592.163 180.069 592.059C179.826 591.949 179.542 591.895 179.219 591.895C178.797 591.895 178.436 591.979 178.138 592.148C177.845 592.317 177.7 592.546 177.705 592.834C177.7 593.058 177.79 593.252 177.974 593.416C178.163 593.58 178.498 593.712 178.981 593.811L181.188 594.229C182.331 594.447 183.182 594.81 183.738 595.317C184.3 595.825 184.584 596.496 184.589 597.331C184.584 598.116 184.35 598.8 183.888 599.382C183.43 599.963 182.804 600.416 182.008 600.739C181.213 601.057 180.303 601.216 179.279 601.216C177.643 601.216 176.353 600.881 175.409 600.21C174.469 599.533 173.932 598.629 173.798 597.495L177.4 597.406C177.479 597.823 177.686 598.141 178.019 598.36C178.352 598.579 178.777 598.688 179.294 598.688C179.761 598.688 180.141 598.601 180.435 598.427C180.728 598.253 180.877 598.022 180.882 597.734C180.877 597.475 180.763 597.269 180.539 597.115C180.315 596.956 179.965 596.831 179.488 596.742L177.489 596.362C176.341 596.153 175.486 595.767 174.924 595.206C174.362 594.639 174.084 593.918 174.089 593.043C174.084 592.277 174.287 591.624 174.7 591.082C175.113 590.535 175.699 590.117 176.46 589.829C177.221 589.54 178.118 589.396 179.152 589.396C180.703 589.396 181.926 589.722 182.821 590.373C183.716 591.02 184.211 591.909 184.305 593.043ZM188.524 601L185.541 589.545H189.203L190.746 596.884H190.843L192.499 589.545H196.071L197.771 596.831H197.868L199.367 589.545H203.029L200.038 601H196.138L194.348 594.326H194.222L192.432 601H188.524ZM209.601 601.216C208.402 601.216 207.368 600.98 206.498 600.508C205.633 600.031 204.967 599.352 204.5 598.472C204.037 597.587 203.806 596.536 203.806 595.317C203.806 594.134 204.04 593.1 204.507 592.215C204.975 591.325 205.633 590.634 206.483 590.142C207.334 589.645 208.335 589.396 209.489 589.396C210.304 589.396 211.05 589.523 211.726 589.777C212.402 590.03 212.986 590.406 213.478 590.903C213.971 591.4 214.353 592.014 214.627 592.745C214.9 593.471 215.037 594.303 215.037 595.243V596.153H205.081V594.035H211.644C211.639 593.647 211.547 593.301 211.368 592.998C211.189 592.695 210.943 592.459 210.63 592.29C210.322 592.116 209.966 592.029 209.563 592.029C209.156 592.029 208.79 592.121 208.467 592.305C208.144 592.484 207.888 592.73 207.699 593.043C207.51 593.351 207.411 593.702 207.401 594.094V596.25C207.401 596.717 207.493 597.127 207.677 597.48C207.861 597.828 208.122 598.099 208.46 598.293C208.798 598.487 209.2 598.584 209.668 598.584C209.991 598.584 210.284 598.539 210.548 598.45C210.811 598.36 211.037 598.228 211.226 598.054C211.415 597.88 211.557 597.667 211.651 597.413L215 597.51C214.861 598.261 214.555 598.914 214.083 599.471C213.615 600.023 213.001 600.453 212.241 600.761C211.48 601.065 210.6 601.216 209.601 601.216ZM216.9 601V589.545H220.442V591.634H220.561C220.77 590.878 221.11 590.316 221.583 589.948C222.055 589.575 222.604 589.389 223.231 589.389C223.4 589.389 223.574 589.401 223.753 589.426C223.932 589.446 224.098 589.478 224.253 589.523V592.692C224.079 592.633 223.85 592.586 223.566 592.551C223.288 592.516 223.039 592.499 222.821 592.499C222.388 592.499 221.998 592.596 221.65 592.789C221.307 592.978 221.036 593.244 220.837 593.587C220.643 593.925 220.546 594.323 220.546 594.781V601H216.9ZM226.477 601.216C225.94 601.216 225.48 601.027 225.097 600.65C224.719 600.272 224.533 599.814 224.538 599.277C224.533 598.75 224.719 598.3 225.097 597.928C225.48 597.55 225.94 597.361 226.477 597.361C226.984 597.361 227.431 597.55 227.819 597.928C228.212 598.3 228.411 598.75 228.416 599.277C228.411 599.635 228.316 599.961 228.132 600.254C227.953 600.548 227.717 600.781 227.424 600.955C227.135 601.129 226.82 601.216 226.477 601.216ZM232.875 601.216C232.338 601.216 231.878 601.027 231.496 600.65C231.118 600.272 230.931 599.814 230.936 599.277C230.931 598.75 231.118 598.3 231.496 597.928C231.878 597.55 232.338 597.361 232.875 597.361C233.382 597.361 233.83 597.55 234.217 597.928C234.61 598.3 234.809 598.75 234.814 599.277C234.809 599.635 234.715 599.961 234.531 600.254C234.352 600.548 234.116 600.781 233.822 600.955C233.534 601.129 233.218 601.216 232.875 601.216ZM239.274 601.216C238.737 601.216 238.277 601.027 237.894 600.65C237.516 600.272 237.33 599.814 237.335 599.277C237.33 598.75 237.516 598.3 237.894 597.928C238.277 597.55 238.737 597.361 239.274 597.361C239.781 597.361 240.228 597.55 240.616 597.928C241.009 598.3 241.208 598.75 241.212 599.277C241.208 599.635 241.113 599.961 240.929 600.254C240.75 600.548 240.514 600.781 240.221 600.955C239.932 601.129 239.617 601.216 239.274 601.216Z" fill="white"/>
</g>
<defs>
<clipPath id="clip0_154_3">
<rect width="390" height="844" fill="white"/>
</clipPath>
</defs>
</svg>
