<svg width="900" height="600" viewBox="0 0 900 600" fill="none" xmlns="http://www.w3.org/2000/svg">
<g clip-path="url(#clip0_44_22)">
<path d="M900 0H0V600H900V0Z" fill="#E95CF2"/>
<path d="M413.3 600C424.7 533.9 436.2 467.9 475 424C513.8 380.1 580 358.3 629.2 329.2C678.4 300 710.7 263.5 753 245.2C795.4 227 847.7 227 900 227V600H413.3Z" fill="#E336A7"/>
<path d="M656.6 600C662.4 567 668.1 533.9 687.5 512C706.9 490 740 479.2 764.6 464.6C789.2 450 805.4 431.7 826.5 422.6C847.7 413.5 873.8 413.5 900 413.5V600H656.6Z" fill="#C62368"/>
<path d="M377 0C384.7 57.7 392.4 115.4 371.4 153.8C350.4 192.3 300.7 211.4 270.1 270.1C239.5 328.8 228.1 427 186.3 449.7C144.4 472.4 72.2 419.7 0 367V0H377Z" fill="#E336A7"/>
<path d="M188.5 0C192.4 28.9 196.2 57.7 185.7 76.9C175.2 96.1 150.3 105.7 135.1 135.1C119.8 164.4 114.1 213.5 93.1 224.8C72.2 236.2 36.1 209.9 0 183.5V0H188.5Z" fill="#C62368"/>
</g>
<defs>
<clipPath id="clip0_44_22">
<rect width="900" height="600" fill="white"/>
</clipPath>
</defs>
</svg>
