<svg id="visual" viewBox="0 0 900 600" width="900" height="600" xmlns="http://www.w3.org/2000/svg" xmlns:xlink="http://www.w3.org/1999/xlink" version="1.1"><rect x="0" y="0" width="900" height="600" fill="#001220"></rect><defs><linearGradient id="grad1_0" x1="33.3%" y1="0%" x2="100%" y2="100%"><stop offset="20%" stop-color="#a86fff" stop-opacity="1"></stop><stop offset="80%" stop-color="#a86fff" stop-opacity="1"></stop></linearGradient></defs><defs><linearGradient id="grad1_1" x1="33.3%" y1="0%" x2="100%" y2="100%"><stop offset="20%" stop-color="#a86fff" stop-opacity="1"></stop><stop offset="80%" stop-color="#6a63d7" stop-opacity="1"></stop></linearGradient></defs><defs><linearGradient id="grad1_2" x1="33.3%" y1="0%" x2="100%" y2="100%"><stop offset="20%" stop-color="#3452aa" stop-opacity="1"></stop><stop offset="80%" stop-color="#6a63d7" stop-opacity="1"></stop></linearGradient></defs><defs><linearGradient id="grad1_3" x1="33.3%" y1="0%" x2="100%" y2="100%"><stop offset="20%" stop-color="#3452aa" stop-opacity="1"></stop><stop offset="80%" stop-color="#023e7a" stop-opacity="1"></stop></linearGradient></defs><defs><linearGradient id="grad1_4" x1="33.3%" y1="0%" x2="100%" y2="100%"><stop offset="20%" stop-color="#00294b" stop-opacity="1"></stop><stop offset="80%" stop-color="#023e7a" stop-opacity="1"></stop></linearGradient></defs><defs><linearGradient id="grad1_5" x1="33.3%" y1="0%" x2="100%" y2="100%"><stop offset="20%" stop-color="#00294b" stop-opacity="1"></stop><stop offset="80%" stop-color="#001220" stop-opacity="1"></stop></linearGradient></defs><defs><linearGradient id="grad2_0" x1="0%" y1="0%" x2="66.7%" y2="100%"><stop offset="20%" stop-color="#a86fff" stop-opacity="1"></stop><stop offset="80%" stop-color="#a86fff" stop-opacity="1"></stop></linearGradient></defs><defs><linearGradient id="grad2_1" x1="0%" y1="0%" x2="66.7%" y2="100%"><stop offset="20%" stop-color="#6a63d7" stop-opacity="1"></stop><stop offset="80%" stop-color="#a86fff" stop-opacity="1"></stop></linearGradient></defs><defs><linearGradient id="grad2_2" x1="0%" y1="0%" x2="66.7%" y2="100%"><stop offset="20%" stop-color="#6a63d7" stop-opacity="1"></stop><stop offset="80%" stop-color="#3452aa" stop-opacity="1"></stop></linearGradient></defs><defs><linearGradient id="grad2_3" x1="0%" y1="0%" x2="66.7%" y2="100%"><stop offset="20%" stop-color="#023e7a" stop-opacity="1"></stop><stop offset="80%" stop-color="#3452aa" stop-opacity="1"></stop></linearGradient></defs><defs><linearGradient id="grad2_4" x1="0%" y1="0%" x2="66.7%" y2="100%"><stop offset="20%" stop-color="#023e7a" stop-opacity="1"></stop><stop offset="80%" stop-color="#00294b" stop-opacity="1"></stop></linearGradient></defs><defs><linearGradient id="grad2_5" x1="0%" y1="0%" x2="66.7%" y2="100%"><stop offset="20%" stop-color="#001220" stop-opacity="1"></stop><stop offset="80%" stop-color="#00294b" stop-opacity="1"></stop></linearGradient></defs><g transform="translate(900, 0)"><path d="M0 513.8C-38.3 507.6 -76.6 501.4 -110.1 482.6C-143.7 463.8 -172.4 432.3 -193.1 400.9C-213.7 369.5 -226.2 338.2 -259.4 325.2C-292.5 312.3 -346.2 317.6 -376.1 299.9C-405.9 282.2 -411.8 241.4 -431.6 207.8C-451.3 174.2 -484.9 147.8 -500.9 114.3C-516.9 80.9 -515.4 40.4 -513.8 0L0 0Z" fill="#001e35"></path><path d="M0 428.2C-31.9 423 -63.8 417.8 -91.8 402.2C-119.7 386.5 -143.7 360.3 -160.9 334.1C-178.1 308 -188.5 281.9 -216.1 271C-243.8 260.2 -288.5 264.7 -313.4 249.9C-338.2 235.2 -343.2 201.2 -359.6 173.2C-376.1 145.2 -404.1 123.1 -417.4 95.3C-430.8 67.4 -429.5 33.7 -428.2 0L0 0Z" fill="#003463"></path><path d="M0 342.5C-25.5 338.4 -51.1 334.3 -73.4 321.7C-95.8 309.2 -115 288.2 -128.7 267.3C-142.5 246.4 -150.8 225.5 -172.9 216.8C-195 208.2 -230.8 211.7 -250.7 199.9C-270.6 188.1 -274.5 161 -287.7 138.6C-300.9 116.2 -323.3 98.5 -333.9 76.2C-344.6 53.9 -343.6 27 -342.5 0L0 0Z" fill="#1b4992"></path><path d="M0 256.9C-19.2 253.8 -38.3 250.7 -55.1 241.3C-71.8 231.9 -86.2 216.2 -96.5 200.5C-106.9 184.8 -113.1 169.1 -129.7 162.6C-146.3 156.1 -173.1 158.8 -188 149.9C-202.9 141.1 -205.9 120.7 -215.8 103.9C-225.7 87.1 -242.4 73.9 -250.5 57.2C-258.5 40.4 -257.7 20.2 -256.9 0L0 0Z" fill="#4e5bc1"></path><path d="M0 171.3C-12.8 169.2 -25.5 167.1 -36.7 160.9C-47.9 154.6 -57.5 144.1 -64.4 133.6C-71.2 123.2 -75.4 112.7 -86.5 108.4C-97.5 104.1 -115.4 105.9 -125.4 100C-135.3 94.1 -137.3 80.5 -143.9 69.3C-150.4 58.1 -161.6 49.3 -167 38.1C-172.3 27 -171.8 13.5 -171.3 0L0 0Z" fill="#886aec"></path><path d="M0 85.6C-6.4 84.6 -12.8 83.6 -18.4 80.4C-23.9 77.3 -28.7 72.1 -32.2 66.8C-35.6 61.6 -37.7 56.4 -43.2 54.2C-48.8 52 -57.7 52.9 -62.7 50C-67.6 47 -68.6 40.2 -71.9 34.6C-75.2 29 -80.8 24.6 -83.5 19.1C-86.2 13.5 -85.9 6.7 -85.6 0L0 0Z" fill="#a86fff"></path></g><g transform="translate(0, 600)"><path d="M0 -513.8C28.2 -469.7 56.4 -425.7 97.2 -426C138.1 -426.4 191.6 -471.1 222.9 -462.9C254.2 -454.7 263.3 -393.5 284.9 -357.3C306.6 -321.1 340.9 -310 356.5 -284.3C372.2 -258.6 369.2 -218.4 392.8 -189.2C416.5 -160 466.8 -141.8 491.4 -112.2C516 -82.5 514.9 -41.2 513.8 0L0 0Z" fill="#001e35"></path><path d="M0 -428.2C23.5 -391.5 47 -354.7 81 -355C115.1 -355.3 159.7 -392.6 185.8 -385.8C211.8 -378.9 219.4 -327.9 237.4 -297.7C255.5 -267.6 284.1 -258.3 297.1 -236.9C310.1 -215.5 307.6 -182 327.4 -157.6C347.1 -133.3 389 -118.2 409.5 -93.5C430 -68.7 429.1 -34.4 428.2 0L0 0Z" fill="#003463"></path><path d="M0 -342.5C18.8 -313.2 37.6 -283.8 64.8 -284C92.1 -284.3 127.8 -314.1 148.6 -308.6C169.5 -303.1 175.5 -262.3 190 -238.2C204.4 -214.1 227.2 -206.7 237.7 -189.5C248.1 -172.4 246.1 -145.6 261.9 -126.1C277.6 -106.7 311.2 -94.6 327.6 -74.8C344 -55 343.3 -27.5 342.5 0L0 0Z" fill="#1b4992"></path><path d="M0 -256.9C14.1 -234.9 28.2 -212.8 48.6 -213C69.1 -213.2 95.8 -235.6 111.5 -231.5C127.1 -227.3 131.6 -196.7 142.5 -178.6C153.3 -160.6 170.4 -155 178.3 -142.2C186.1 -129.3 184.6 -109.2 196.4 -94.6C208.2 -80 233.4 -70.9 245.7 -56.1C258 -41.2 257.4 -20.6 256.9 0L0 0Z" fill="#4e5bc1"></path><path d="M0 -171.3C9.4 -156.6 18.8 -141.9 32.4 -142C46 -142.1 63.9 -157 74.3 -154.3C84.7 -151.6 87.8 -131.2 95 -119.1C102.2 -107 113.6 -103.3 118.8 -94.8C124.1 -86.2 123.1 -72.8 130.9 -63.1C138.8 -53.3 155.6 -47.3 163.8 -37.4C172 -27.5 171.6 -13.7 171.3 0L0 0Z" fill="#886aec"></path><path d="M0 -85.6C4.7 -78.3 9.4 -70.9 16.2 -71C23 -71.1 31.9 -78.5 37.2 -77.2C42.4 -75.8 43.9 -65.6 47.5 -59.5C51.1 -53.5 56.8 -51.7 59.4 -47.4C62 -43.1 61.5 -36.4 65.5 -31.5C69.4 -26.7 77.8 -23.6 81.9 -18.7C86 -13.7 85.8 -6.9 85.6 0L0 0Z" fill="#a86fff"></path></g></svg>